<svg width="14" height="13" xmlns="http://www.w3.org/2000/svg" fill="none">
 <g>
  <title>Layer 1</title>
  <path d="m6.65625,12.2188l-0.96875,-0.875c-1.10417,-1 -1.90625,-1.73963 -2.40625,-2.2188c-0.5,-0.47917 -1.0625,-1.07292 -1.6875,-1.78125c-0.60417,-0.70833 -1.02083,-1.34375 -1.25,-1.90625c-0.22917,-0.58333 -0.34375,-1.17708 -0.34375,-1.78125c0,-1.02083 0.34375,-1.88542 1.03125,-2.59375c0.70833,-0.70833 1.58333,-1.0625 2.625,-1.0625c1.20833,0 2.20833,0.46875 3,1.40625c0.79167,-0.9375 1.79167,-1.40625 3,-1.40625c1.04165,0 1.90625,0.35417 2.59375,1.0625c0.7083,0.70833 1.0625,1.57292 1.0625,2.59375c0,0.8125 -0.2708,1.65625 -0.8125,2.53125c-0.5417,0.875 -1.1354,1.63542 -1.7812,2.28125c-0.625,0.64583 -1.6563,1.61455 -3.0938,2.90625l-0.96875,0.8438z" fill="#ff0000" id="svg_1"/>
  <path fill="none" id="svg_2" d="m6.12727,5.44545c-0.07273,0 -0.05602,0.07467 -0.07273,0.14545c-0.03736,0.15827 -0.14545,0.21818 -0.14545,0.36364c0,0.14545 0,0.21818 0,0.29091c0,0.14545 -0.08349,0.30752 0,0.50909c0.03936,0.09502 0.07273,0.21818 0.14545,0.29091c0.07273,0.07273 0.14545,0.14545 0.29091,0.14545c0.07273,0 0.14545,0 0.29091,-0.14545c0.14545,-0.14545 0.33028,-0.41474 0.43636,-0.65455c0.12131,-0.27423 0.18154,-0.57511 0.21818,-0.87273c0.02666,-0.21655 0.07273,-0.50909 0.07273,-0.8c0,-0.21818 0,-0.43636 0,-0.58182c0,-0.07273 0,0 0,0.07273c0,0.14545 -0.11004,0.40684 -0.21818,0.58182c-0.12091,0.19564 -0.12309,0.44989 -0.21818,0.58182c-0.06014,0.08344 -0.07273,0.14545 -0.07273,0.07273c0,-0.07273 0.02454,-0.09527 0.14545,-0.29091c0.05407,-0.08749 0.21818,-0.29091 0.43636,-0.50909l0.29091,-0.14545"/>
  <path fill="none" id="svg_3" d="m38.27273,-2.99091c0,0 0,0 0,-0.07273l0,-0.07273l0,-0.07273l0,-0.07273"/>
  <polyline fill="none" points="-22.163636363636364,-3.3545454545454554 -22.163636363636364,-3.2818181818181813 " id="svg_4" stroke-linecap="round"/>
  <path d="m32.69378,2.16986c-0.0957,0 -0.24031,-0.01754 -0.38277,0c-0.1958,0.0241 -0.38278,0.04785 -0.62201,0.09569c-0.23923,0.04785 -0.52632,0.09569 -0.86124,0.19139c-0.33493,0.09569 -0.62637,0.18161 -0.95694,0.33493c-0.19411,0.09003 -0.37434,0.21465 -0.47847,0.23923c-0.04657,0.01099 -0.08168,0.03383 -0.04785,0c0.03383,-0.03383 0.19901,-0.07706 0.33493,-0.14354c0.15497,-0.07579 0.29084,-0.13349 0.43062,-0.19139c0.09884,-0.04094 0.14354,-0.09569 0.19139,-0.09569c0.09569,0 0.12199,0.0694 0,0.19139c-0.12198,0.12199 -0.37074,0.21368 -0.62201,0.33493c-0.36818,0.17767 -0.71252,0.29645 -1.05263,0.47847c-0.37732,0.20193 -0.76037,0.39214 -1.10048,0.57416c-0.28299,0.15145 -0.48737,0.22452 -0.57416,0.28708c-0.05489,0.03957 -0.114,0.0442 -0.09569,0c0.02589,-0.06251 0.04785,-0.14354 0.09569,-0.19139l0.04785,-0.04785" id="svg_5" stroke="#000" fill="none"/>
 </g>

</svg>